<svg xmlns="http://www.w3.org/2000/svg" viewBox="0 0 47.5 47.5" id="n"><defs><clipPath id="a"><path d="M0 38h38V0H0v38Z"></path></clipPath></defs><g clip-path="url(#a)" transform="matrix(1.25 0 0 -1.25 0 47.5)"><path fill="#3b88c3" d="M37 5a4 4 0 0 0-4-4H5a4 4 0 0 0-4 4v28a4 4 0 0 0 4 4h28a4 4 0 0 0 4-4V5Z"></path><path fill="#fff" d="M9.591 27.844c0 1.55.992 2.418 2.326 2.418.589 0 1.55-.465 1.953-1.022l9.829-13.117h.062v11.721c0 1.55.993 2.418 2.325 2.418 1.334 0 2.326-.868 2.326-2.418V10.233c0-1.551-.992-2.418-2.326-2.418-.588 0-1.519.465-1.953 1.022l-9.829 12.961h-.062V10.233c0-1.551-.992-2.418-2.325-2.418-1.334 0-2.326.867-2.326 2.418v17.611Z"></path></g></svg>